<svg xmlns="http://www.w3.org/2000/svg" width="39.2" height="39.2" viewBox="0 0 39.2 39.2">
  <path id="Caminho_6" data-name="Caminho 6" d="M16.053,18.013a1.96,1.96,0,0,0,1.392-3.352L8.684,5.92H11.8A1.96,1.96,0,0,0,11.8,2H3.96A1.99,1.99,0,0,0,2,3.96V11.8a1.96,1.96,0,0,0,3.92,0V8.684l8.742,8.761a1.96,1.96,0,0,0,1.392.568Zm12.485-3.352a1.96,1.96,0,0,0-2.783,0L14.662,25.755a1.968,1.968,0,0,0,2.783,2.783L28.539,17.445a1.96,1.96,0,0,0,0-2.783ZM39.24,29.44a1.96,1.96,0,0,0-1.96,1.96v3.116l-8.742-8.761a1.968,1.968,0,0,0-2.783,2.783l8.761,8.742H31.4a1.96,1.96,0,0,0,0,3.92h7.84a1.99,1.99,0,0,0,1.96-1.96V31.4A1.96,1.96,0,0,0,39.24,29.44Z" transform="translate(-2 -2)" fill="#fff"/>
</svg>
