<svg xmlns="http://www.w3.org/2000/svg" width="48.66" height="35.67" viewBox="0 0 48.66 35.67">
  <g id="Grupo_34" data-name="Grupo 34" transform="translate(-20 -83)">
    <path id="Caminho_13" data-name="Caminho 13" d="M127.674,151.649h4.111a.825.825,0,1,0,0-1.649h-4.111a.825.825,0,1,0,0,1.649Zm0,5.052h9.735a.825.825,0,1,0,0-1.649h-9.735a.825.825,0,1,0,0,1.649Zm0,5.052h9.735a.825.825,0,1,0,0-1.649h-9.735a.825.825,0,1,0,0,1.649Zm0,5.052h9.735a.825.825,0,0,0,0-1.649h-9.735a.825.825,0,1,0,0,1.649Zm-19.2-15.155h4.111a.825.825,0,1,0,0-1.649h-4.111a.825.825,0,0,0,0,1.649Zm0,5.052h9.735a.825.825,0,1,0,0-1.649h-9.735a.825.825,0,1,0,0,1.649Zm0,5.052h9.735a.825.825,0,1,0,0-1.649h-9.735a.825.825,0,1,0,0,1.649Zm0,5.052h9.735a.825.825,0,0,0,0-1.649h-9.735a.825.825,0,1,0,0,1.649Z" transform="translate(-78.61 -60.093)" fill="#fff"/>
    <path id="Caminho_14" data-name="Caminho 14" d="M67.787,87.845H64.433V87.06A4.054,4.054,0,0,0,60.4,83H49.947a4.038,4.038,0,0,0-1.38.254L45.146,84.5a2.394,2.394,0,0,1-1.633,0l-3.421-1.253A4.036,4.036,0,0,0,38.712,83H28.257a4.054,4.054,0,0,0-4.03,4.06v.785H20.873a.887.887,0,0,0-.873.848v29.13a.886.886,0,0,0,.873.846H67.787a.886.886,0,0,0,.873-.846V88.693A.887.887,0,0,0,67.787,87.845ZM49.131,84.8a2.394,2.394,0,0,1,.817-.155H60.4a2.4,2.4,0,0,1,2.381,2.411v22.365a2.341,2.341,0,0,1-2.381,2.338H49.947a4.055,4.055,0,0,0-1.38.269L45.155,113.3V86.216a4.069,4.069,0,0,0,.556-.162ZM25.876,87.06a2.4,2.4,0,0,1,2.381-2.411H38.712a2.393,2.393,0,0,1,.816.155l3.421,1.249a4.069,4.069,0,0,0,.556.163V113.3l-3.412-1.267a4.054,4.054,0,0,0-1.38-.269H28.257a2.341,2.341,0,0,1-2.381-2.338ZM67.01,117.02H21.649V89.495h2.577v19.93a3.992,3.992,0,0,0,4.03,3.987H38.712a2.413,2.413,0,0,1,.816.169l3.421,1.257a4.022,4.022,0,0,0,2.761.01l3.421-1.268a2.41,2.41,0,0,1,.817-.168H60.4a3.992,3.992,0,0,0,4.03-3.987V89.495H67.01Z" fill="#fff"/>
  </g>
</svg>
