<svg xmlns="http://www.w3.org/2000/svg" width="39.088" height="37" viewBox="0 0 39.088 37">
  <path id="Caminho_11" data-name="Caminho 11" d="M55.559,81.488H43.341q-.143-.012.05.012a.625.625,0,0,1-.137-.029c-.017,0-.133-.029-.133-.042.033.012.066.029.1.042-.033-.017-.066-.033-.1-.05s-.137-.071-.137-.087c.029.021.054.042.083.062-.029-.025-.054-.05-.079-.075,0,0-.075-.075-.075-.079.071.1.083.112.029.037-.021-.029-.042-.062-.058-.091l-.025-.05c-.037-.083-.033-.066.017.05a.783.783,0,0,1-.05-.158.415.415,0,0,1-.021-.112c0,.037.012.071.017.108a1.088,1.088,0,0,1,0-.116V68.692c.008-.075,0-.075,0,0,0,.017,0,.037-.008.054a1.062,1.062,0,0,1,.021-.112.706.706,0,0,1,.05-.158c-.05.112-.054.129-.017.05.017-.033.033-.062.054-.1.008-.017.021-.029.029-.046.042-.058.042-.058,0,0-.012.012-.021.029-.033.042.025-.029.05-.054.075-.079l.037-.037c.066-.058.054-.05-.042.025,0-.017.12-.079.137-.087l.05-.025c.083-.037.066-.033-.05.017a.6.6,0,0,0,.1-.033c.017,0,.158-.05.166-.037q-.193.025-.05.012H54.189c.457,0,.918-.008,1.374,0h.058q.143.012-.05-.012c.008-.012.149.033.166.037l.054.017c.083.033.071.025-.046-.021.008-.008.108.058.12.062s.112.058.112.075c-.029-.021-.054-.042-.083-.062.029.025.054.05.079.075l.037.037c.058.066.05.054-.025-.042.029,0,.1.162.116.187.071.112-.033-.05-.017-.05a.783.783,0,0,1,.05.158c0,.017.008.037.012.054.017.091.012.075,0-.054a1.086,1.086,0,0,1,0,.116v7.07c0,1.69.021,3.38,0,5.069v.079q-.012.143.012-.05c.012.008-.033.149-.037.166s-.075.183-.017.058-.021.033-.029.05-.071.137-.087.137c.021-.029.042-.054.062-.083-.025.029-.05.054-.075.079l-.037.037c-.066.058-.054.05.042-.025a.434.434,0,0,1-.091.062.723.723,0,0,1-.145.079c.033-.012.066-.029.1-.042a1,1,0,0,1-.1.033c-.017,0-.158.05-.166.037.037,0,.071-.012.108-.017a1.169,1.169,0,0,0-.12,0,.83.83,0,1,0,0,1.661A2.273,2.273,0,0,0,57.8,80.906c0-.141,0-.278,0-.419V70.519c0-.585.008-1.171,0-1.756a2.279,2.279,0,0,0-1.524-2.142,2.878,2.878,0,0,0-.976-.12H43.49a2.3,2.3,0,0,0-1.756.735,2.385,2.385,0,0,0-.581,1.627V80.695A2.709,2.709,0,0,0,41.4,81.92a2.271,2.271,0,0,0,2.03,1.225c1.794.012,3.591,0,5.385,0h6.742a.828.828,0,1,0,0-1.657Zm0,5.356H43.428a2.286,2.286,0,0,0-2.134,1.47,5.568,5.568,0,0,0-.141,1.931v10.9a2.248,2.248,0,0,0,2.354,2.346H54.422a5,5,0,0,0,2.1-.224,2.264,2.264,0,0,0,1.275-2.047V93.935c0-1.615.029-3.23,0-4.845a2.274,2.274,0,0,0-2.242-2.246.83.83,0,1,0,0,1.661h.058q.143.012-.05-.012c.008-.012.149.033.166.037l.054.017c.083.033.071.025-.046-.021.008-.008.108.058.12.062s.112.058.112.075c-.029-.021-.054-.042-.083-.062.029.025.054.05.079.075l.037.037c.058.066.05.054-.025-.042.029,0,.1.162.116.187.071.112-.033-.05-.017-.05a.782.782,0,0,1,.05.158c0,.017.008.037.012.054.017.091.012.075,0-.054a1.088,1.088,0,0,1,0,.116V99.556c0,.556.008,1.109,0,1.665v.079q-.012.143.012-.05c.012.008-.033.149-.037.166s-.075.183-.017.058-.046.075-.058.1-.021.029-.029.046c-.05.071-.042.058.029-.037a.97.97,0,0,1-.112.116c-.12.133.154-.087,0,0a.684.684,0,0,0-.091.058l-.05.025c-.083.037-.066.033.05-.017a.783.783,0,0,1-.158.05l-.054.012c-.091.017-.075.012.054,0a.564.564,0,0,0-.116,0c-.133,0-.27,0-.4,0H43.345c-.2,0,.179.046,0,0l-.108-.025-.054-.017c-.083-.033-.071-.025.046.021a.723.723,0,0,1-.145-.079c-.017-.008-.029-.021-.046-.029-.071-.05-.058-.042.037.029a.971.971,0,0,1-.116-.112c-.1-.087.046.042.025.042s-.1-.162-.116-.187c-.1-.154.042.174,0,0-.012-.054-.029-.108-.042-.162-.037-.129.021.058,0,.054a1.088,1.088,0,0,1,0-.116V89.031c0-.17,0,.058-.012.05s.033-.149.037-.166.012-.037.017-.054c.033-.083.025-.071-.021.046-.012-.012.1-.17.108-.191.083-.137-.025.046-.029.037a.969.969,0,0,1,.112-.116c.12-.133-.154.087,0,0,.046-.029.1-.054.141-.083.154-.1-.174.042,0,0,.037-.008.071-.021.108-.029l.054-.012c.091-.017.075-.012-.054,0a1.09,1.09,0,0,1,.116,0H55.568a.838.838,0,0,0,.83-.83A.86.86,0,0,0,55.559,86.843Zm5.788-15.017H77.169c.731,0,1.461.021,2.192,0h.033a.83.83,0,0,0,0-1.661H63.572c-.731,0-1.461-.021-2.192,0h-.033a.83.83,0,0,0,0,1.661Zm11.525,6H61.347a.83.83,0,0,0,0,1.661H72.872a.83.83,0,0,0,0-1.661ZM61.347,92.17H77.169c.731,0,1.461.021,2.192,0h.033a.83.83,0,0,0,0-1.661H63.572c-.731,0-1.461-.021-2.192,0h-.033a.83.83,0,0,0,0,1.661Zm11.525,6H61.347a.83.83,0,0,0,0,1.661H72.872a.83.83,0,0,0,0-1.661Z" transform="translate(-41.138 -66.5)" fill="#fff"/>
</svg>
