<svg xmlns="http://www.w3.org/2000/svg" width="40.425" height="42.65" viewBox="0 0 40.425 42.65">
  <g id="Grupo_23" data-name="Grupo 23" transform="translate(-3.87 -2.34)">
    <path id="Caminho_7" data-name="Caminho 7" d="M24.918,59.093H4.948A1.078,1.078,0,0,1,3.87,58.015V53.567a1.078,1.078,0,0,1,1.078-1.078H16.9a1.078,1.078,0,1,1,0,2.156H6.026v2.321H23.84v-2.35H22.3a1.078,1.078,0,1,1,0-2.156h2.616A1.078,1.078,0,0,1,26,53.538v4.477a1.078,1.078,0,0,1-1.078,1.078Z" transform="translate(0 -14.103)" fill="#fff"/>
    <path id="Caminho_8" data-name="Caminho 8" d="M23.327,41.991a1.078,1.078,0,0,1-1.092-1.049V37.514H9.666v3.428a1.078,1.078,0,0,1-2.156,0V36.436a1.078,1.078,0,0,1,1.071-1.078H23.327A1.078,1.078,0,0,1,24.4,36.436v4.506A1.078,1.078,0,0,1,23.327,41.991ZM18.483,28.833a1.078,1.078,0,0,1-.762-1.84L29.37,15.337A1.08,1.08,0,0,1,30.9,16.861L19.245,28.517a1.1,1.1,0,0,1-.762.316Zm-7.4-7.4a1.042,1.042,0,0,1-.762-.316,1.071,1.071,0,0,1,0-1.523L21.976,7.936A1.078,1.078,0,1,1,23.5,9.459L11.843,21.115a1.056,1.056,0,0,1-.762.316Z" transform="translate(-1.024 -1.478)" fill="#fff"/>
    <path id="Caminho_9" data-name="Caminho 9" d="M30.48,16.561a1.042,1.042,0,0,1-.762-.316l-.87-.862a1.08,1.08,0,1,1,1.531-1.523l.1.1,1.437-1.437-7.6-7.6L22.877,6.357l4.384,4.384a1.085,1.085,0,0,1,0,1.523,1.071,1.071,0,0,1-1.523,0L20.592,7.126a1.071,1.071,0,0,1,0-1.523l2.954-2.961a1.121,1.121,0,0,1,1.531,0L34.2,11.768a1.092,1.092,0,0,1,.316.762,1.078,1.078,0,0,1-.316.762l-2.961,2.961a1.064,1.064,0,0,1-.762.309ZM15.864,31.178a1.071,1.071,0,0,1-.762-.338l-9.126-9.1a1.071,1.071,0,0,1,0-1.523l2.961-2.961a1.071,1.071,0,0,1,1.523,0l.862.862A1.078,1.078,0,1,1,9.8,19.637l-.1-.1L8.261,20.974l7.6,7.6L17.3,27.139l-3.873-3.866a1.085,1.085,0,0,1,0-1.523,1.071,1.071,0,0,1,1.523,0l4.606,4.628a1.078,1.078,0,0,1,0,1.523L16.625,30.84A1.085,1.085,0,0,1,15.864,31.178ZM41.762,41.4a3.018,3.018,0,0,1-2.156-.891L21.641,22.6a1.056,1.056,0,0,1-.323-.762,1.078,1.078,0,0,1,.316-.762L24.415,18.3a1.071,1.071,0,0,1,1.523,0L43.9,36.2a3.04,3.04,0,0,1-2.141,5.2ZM23.926,21.836,41.116,38.982a.913.913,0,0,0,1.25,0,.885.885,0,0,0,0-1.25L25.119,20.586Z" transform="translate(-0.503)" fill="#fff"/>
  </g>
</svg>
